<?xml version="1.0" standalone="no"?>
<!DOCTYPE svg PUBLIC "-//W3C//DTD SVG 1.1//EN" "http://www.w3.org/Graphics/SVG/1.1/DTD/svg11.dtd" >
<svg>
<metadata>
Created by FontForge 20110222 at Tue May 27 08:46:25 2014
 By deploy user
Copyright (c) Phanlop Thongsuk, 1995-2009. All rights reserved.
</metadata>
<defs>
<font id="PSLDisplayPro" horiz-adv-x="0" >
  <font-face 
    font-family="PSL Display Pro ()"
    font-weight="400"
    font-stretch="normal"
    units-per-em="2048"
    panose-1="2 0 5 6 0 0 0 2 0 4"
    ascent="1638"
    descent="-410"
    x-height="717"
    cap-height="967"
    bbox="-778 -627 1499 1599"
    underline-thickness="72"
    underline-position="-123"
    unicode-range="U+0020-F880"
  />
<missing-glyph horiz-adv-x="1599" 
d="M100 1599h1399v-1599h-1399v1599zM1401 1499h-1200v-1399h1200v1399z" />
    <glyph glyph-name="saraueesp1" unicode="&#xe37;&#xe48;" 
d="M-254 1341h109v-163h-109v163zM-621 993h291v123h86v-123h64v123h108v-205h-549v82z" />
    <glyph glyph-name=".notdef" horiz-adv-x="1599" 
d="M100 1599h1399v-1599h-1399v1599zM1401 1499h-1200v-1399h1200v1399z" />
    <glyph glyph-name=".null" 
 />
    <glyph glyph-name="nonmarkingreturn" horiz-adv-x="451" 
 />
    <glyph glyph-name="space" unicode=" " horiz-adv-x="451" 
 />
    <glyph glyph-name="space" unicode="&#xa0;" horiz-adv-x="451" 
 />
    <glyph glyph-name="percent" unicode="%" horiz-adv-x="999" 
d="M948 231q0 -231 -184 -231q-182 0 -182 231q0 232 184 232q182 0 182 -232zM231 -18l465 985h72l-463 -985h-74zM418 717q0 -232 -185 -232q-182 0 -182 232q0 231 185 231q182 0 182 -231zM864 227q0 162 -100 162q-98 0 -98 -162q0 -161 100 -161q98 0 98 161zM334 713
q0 161 -101 161q-98 0 -98 -161q0 -162 101 -162q98 0 98 162z" />
    <glyph glyph-name="ampersand" unicode="&#x26;" horiz-adv-x="889" 
d="M641 86q-103 -109 -238 -109q-71 0 -129 20.5t-100 57.5t-65 88t-23 113q0 100 66 178q39 46 147 117l-39 51q-63 81 -63 178q0 39 16.5 73.5t45.5 60t68.5 40.5t84.5 15q43 0 80 -13.5t64.5 -37.5t43.5 -58t16 -74q0 -144 -137 -227l-41 -24l201 -265q20 51 29.5 93.5
t9.5 80.5h102q0 -72 -18 -138.5t-53 -129.5l133 -176h-137zM504 770q0 48 -26.5 78.5t-69.5 30.5q-45 0 -74 -29t-29 -74q0 -73 78 -170q121 85 121 164zM352 479q-149 -98 -149 -221q0 -38 15 -71t42 -58.5t63 -40t78 -14.5q101 0 179 96z" />
    <glyph glyph-name="quotesingle" unicode="'" horiz-adv-x="307" 
d="M117 954h73v-292h-73v292z" />
    <glyph glyph-name="parenleft" unicode="(" horiz-adv-x="424" 
d="M303 -213q-109 143 -164 296.5t-55 326.5q0 338 219 622h70q-170 -272 -170 -622q0 -351 170 -623h-70v0z" />
    <glyph glyph-name="parenright" unicode=")" horiz-adv-x="424" 
d="M336 410q0 -173 -55 -326.5t-164 -296.5h-70q170 272 170 623q0 350 -170 622h70q219 -284 219 -622z" />
    <glyph glyph-name="asterisk" unicode="*" horiz-adv-x="655" 
d="M487 631l-59 -43l-100 137l-99 -137l-59 43l90 123l-145 47l22 71l156 -51v146h74v-146l153 51l23 -71l-146 -47z" />
    <glyph glyph-name="plus" unicode="+" horiz-adv-x="688" 
d="M389 66h-90v258h-258v90h258v258h90v-258h258v-90h-258v-258z" />
    <glyph glyph-name="comma" unicode="," horiz-adv-x="307" 
d="M225 33q0 -27 -8 -53.5t-23 -49t-36.5 -39.5t-48.5 -26l-15 31q83 36 80 96q-8 -5 -15 -6.5t-12 -1.5q-31 0 -52 21t-21 52t21 52.5t52 21.5q32 0 55 -26.5t23 -71.5z" />
    <glyph glyph-name="hyphen" unicode="-" horiz-adv-x="424" 
d="M61 414h301v-90h-301v90z" />
    <glyph glyph-name="period" unicode="." horiz-adv-x="307" 
d="M225 72q0 -29 -21 -50.5t-50 -21.5t-50.5 21.5t-21.5 50.5t21.5 50t50.5 21t50 -21t21 -50z" />
    <glyph glyph-name="slash" unicode="/" horiz-adv-x="418" 
d="M-2 -35l340 1002h84l-340 -1002h-84z" />
    <glyph glyph-name="zero" unicode="0" horiz-adv-x="696" 
d="M635 473q0 -493 -285 -493q-289 0 -289 493q0 494 289 494q285 0 285 -494zM510 473q0 114 -9.5 191t-29.5 122q-33 80 -123 80q-88 0 -123 -80q-39 -89 -39 -313q0 -235 39 -317q34 -76 123 -76q92 0 123 76q20 42 29.5 120.5t9.5 196.5z" />
    <glyph glyph-name="one" unicode="1" horiz-adv-x="696" 
d="M328 705h-224v86q232 0 232 178h104v-969h-112v705z" />
    <glyph glyph-name="two" unicode="2" horiz-adv-x="696" 
d="M59 0q-9 170 103 291l213 178q114 102 114 229q0 170 -145 170q-86 0 -122 -56t-36 -177h-118q0 334 276 334q58 0 107 -18t85 -52.5t56 -84.5t20 -114q0 -137 -110 -256q-2 -2 -52 -45.5t-153 -128.5q-110 -92 -113 -174h437v-96h-562v0z" />
    <glyph glyph-name="three" unicode="3" horiz-adv-x="696" 
d="M629 283q0 -138 -70 -217q-77 -86 -225 -86q-281 0 -281 305h115q0 -207 166 -207q42 0 74.5 13t54.5 35.5t33.5 54t11.5 69.5q0 57 -13 95.5t-42.5 61.5t-77 32.5t-115.5 9.5v96q108 0 154 26q61 37 61 142q0 155 -137 155q-43 0 -72.5 -10.5t-47.5 -33t-26 -58
t-8 -84.5h-112q0 285 260 285q61 0 110.5 -18t84 -50t53 -76t18.5 -96q0 -81 -39.5 -139.5t-112.5 -77.5q183 -41 183 -227z" />
    <glyph glyph-name="four" unicode="4" horiz-adv-x="696" 
d="M537 0h-119v244h-379v98l389 625h107v-629h92v-98h-90v-240zM150 340h268v434z" />
    <glyph glyph-name="five" unicode="5" horiz-adv-x="696" 
d="M621 311q0 -74 -20.5 -135t-57.5 -104t-90 -66.5t-117 -23.5q-123 0 -197 65q-42 35 -63 87.5t-19 121.5h119q0 -180 156 -180q82 0 129 69q43 65 43 166q0 93 -37 154q-44 74 -127 74q-118 0 -158 -88h-100l57 497h443v-96h-351l-32 -283q65 68 166 68q60 0 107.5 -23
t80.5 -65.5t50.5 -102.5t17.5 -135z" />
    <glyph glyph-name="six" unicode="6" horiz-adv-x="696" 
d="M641 322q0 -142 -70 -236q-77 -104 -219 -104q-172 0 -243 149q-26 57 -40 144.5t-14 205.5q0 109 18.5 194t53.5 148q79 144 240 144q116 0 186 -70q61 -64 61 -160h-114q0 133 -135 133q-195 0 -195 -372q64 114 203 114q58 0 107.5 -21t85 -59t55.5 -91.5t20 -118.5z
M520 299q0 221 -166 221t-166 -221t166 -221q75 0 120.5 57.5t45.5 163.5z" />
    <glyph glyph-name="seven" unicode="7" horiz-adv-x="696" 
d="M635 856q-163 -187 -258 -448q-42 -115 -63 -216t-21 -192h-133q0 166 98 412q54 135 119.5 243.5t146.5 196.5h-463v96h574v-92v0z" />
    <glyph glyph-name="eight" unicode="8" horiz-adv-x="696" 
d="M631 274q0 -68 -22 -122.5t-60.5 -92.5t-91.5 -58.5t-115 -20.5t-114 20.5t-89 58.5t-57.5 92.5t-20.5 122.5q0 48 15 90.5t41 75.5t62.5 55.5t78.5 30.5q-81 12 -123.5 67t-42.5 136q0 112 76 176q72 60 178 60t178 -60q76 -64 76 -176q0 -81 -42.5 -136t-123.5 -67
q42 -8 78.5 -30.5t62.5 -55.5t41 -75.5t15 -90.5zM487 719q0 72 -39 111.5t-96 39.5t-96 -39.5t-39 -111.5t39 -112t96 -40t96 40t39 112zM524 270q0 48 -13 85.5t-36 62.5t-55 38t-70 13q-75 0 -122.5 -51.5t-47.5 -145.5q0 -43 13.5 -79t37.5 -62.5t55.5 -41.5t67.5 -15
q37 0 68.5 14.5t54 40.5t35 62t12.5 79z" />
    <glyph glyph-name="nine" unicode="9" horiz-adv-x="696" 
d="M641 467q0 -109 -18.5 -194t-53.5 -148q-80 -143 -239 -143q-59 0 -105 18t-77.5 49.5t-48.5 73t-17 88.5h115q0 -133 135 -133q194 0 194 373q-64 -115 -202 -115q-59 0 -108.5 21t-85 59t-55.5 92t-20 119q0 141 70 235q76 105 219 105q173 0 244 -150q53 -117 53 -350
zM508 649q0 221 -166 221q-74 0 -117 -55q-49 -59 -49 -166q0 -221 166 -221t166 221z" />
    <glyph glyph-name="colon" unicode=":" horiz-adv-x="307" 
d="M225 584q0 -29 -21 -50.5t-50 -21.5t-50.5 21.5t-21.5 50.5t21.5 50t50.5 21t50 -21t21 -50zM225 72q0 -29 -21 -50.5t-50 -21.5t-50.5 21.5t-21.5 50.5t21.5 50t50.5 21t50 -21t21 -50z" />
    <glyph glyph-name="semicolon" unicode=";" horiz-adv-x="307" 
d="M217 584q0 -29 -21.5 -50.5t-50.5 -21.5t-50 21.5t-21 50.5t21 50t50 21t50.5 -21t21.5 -50zM225 33q0 -27 -8 -53.5t-23 -49t-36.5 -39.5t-48.5 -26l-15 31q83 36 80 96q-8 -5 -15 -6.5t-12 -1.5q-31 0 -52 21t-21 52t21 52.5t52 21.5q32 0 55 -26.5t23 -71.5z" />
    <glyph glyph-name="less" unicode="&#x3c;" horiz-adv-x="696" 
d="M82 410l539 299v-95l-437 -245l437 -246v-94l-539 299v82z" />
    <glyph glyph-name="equal" unicode="=" horiz-adv-x="686" 
d="M41 537h604v-91h-604v91zM41 291h604v-90h-604v90z" />
    <glyph glyph-name="greater" unicode="&#x3e;" horiz-adv-x="696" 
d="M82 123l438 246l-438 245v95l539 -299v-82l-539 -299v94z" />
    <glyph glyph-name="question" unicode="?" horiz-adv-x="672" 
d="M612 723q0 -101 -61 -186l-56 -68t-57 -68q-28 -42 -39 -85.5t-6 -94.5h-123q-6 124 49 213l107 133q57 72 57 154q0 156 -157 156q-156 0 -156 -211h-119q0 68 18 124t53 95.5t87 61.5t121 22q62 0 114 -18t89.5 -50.5t58 -78t20.5 -99.5zM412 68q0 -32 -23 -55t-55 -23
t-55 23t-23 55t23 54.5t55 22.5t55 -22.5t23 -54.5z" />
    <glyph glyph-name="at" unicode="@" horiz-adv-x="1032" 
d="M985 549q0 -130 -92 -252q-92 -119 -211 -119q-86 0 -115 68q-66 -66 -155 -66q-42 0 -76 14.5t-57 41.5t-35.5 64.5t-12.5 82.5q0 71 35 149q105 236 289 236q97 0 150 -86l20 61h84l-141 -417q-9 -29 -9 -45q0 -35 31 -35q88 0 158 100q35 51 53.5 103t18.5 106
q0 153 -111 252q-113 98 -270 98q-174 0 -301 -127q-125 -125 -125 -303q0 -182 125 -307t303 -125q113 0 207 55q85 52 137 129h76q-29 -54 -69.5 -97t-94.5 -75q-115 -73 -258 -73q-204 0 -349 143q-143 143 -143 352q0 202 141 346q144 144 347 144q190 0 319 -117
q131 -116 131 -301zM614 459q31 77 31 137q0 96 -86 96q-119 0 -203 -184q-24 -59 -24 -117q0 -137 94 -137q109 0 188 205z" />
    <glyph glyph-name="A" unicode="A" horiz-adv-x="733" 
d="M528 281h-325l-80 -281h-123l293 967h156l294 -967h-131zM225 373h281l-137 520z" />
    <glyph glyph-name="B" unicode="B" horiz-adv-x="733" 
d="M680 289q0 -289 -311 -289h-279v967h299q116 0 186 -58q82 -63 82 -186q0 -161 -159 -213q79 -6 129 -59q53 -59 53 -162zM532 717q0 81 -46 117t-156 36h-123v-317h121q204 0 204 164zM563 274q0 52 -14 87t-42.5 56.5t-71.5 30.5t-101 9h-127v-361h176q180 0 180 178z
" />
    <glyph glyph-name="C" unicode="C" horiz-adv-x="733" 
d="M682 350q0 -89 -20.5 -158.5t-59 -117t-93 -72.5t-122.5 -25q-191 0 -270 150q-64 119 -64 371q0 491 338 491q64 0 117.5 -23.5t91.5 -65t59 -99t21 -125.5h-115q0 49 -12.5 89t-35.5 68t-56 43t-74 15q-213 0 -213 -391q0 -188 29 -281q45 -143 174 -143q46 0 81 19.5
t59 55.5t36 86.5t12 112.5h117v0z" />
    <glyph glyph-name="D" unicode="D" horiz-adv-x="811" 
d="M743 518q0 -238 -79 -371q-87 -147 -261 -147h-309v967h287q362 0 362 -449zM625 514q0 356 -238 356h-178v-774h176q135 0 190 109q50 95 50 309z" />
    <glyph glyph-name="E" unicode="E" horiz-adv-x="645" 
d="M84 967h512v-97h-397v-319h372v-96h-372v-359h399v-96h-514v967z" />
    <glyph glyph-name="F" unicode="F" horiz-adv-x="567" 
d="M199 553h336v-96h-336v-457h-115v967h477v-97h-362v-317z" />
    <glyph glyph-name="G" unicode="G" horiz-adv-x="811" 
d="M633 141q-71 -164 -246 -164q-191 0 -270 150q-64 119 -64 371q0 491 350 491q74 0 131.5 -21t96.5 -60.5t59.5 -95.5t20.5 -126h-115q0 205 -197 205q-225 0 -225 -391q0 -188 29 -281q45 -143 174 -143q126 0 180 88q46 76 49 237h-231v95h348v-504h-90v149z" />
    <glyph glyph-name="H" unicode="H" horiz-adv-x="801" 
d="M596 467h-391v-467h-115v967h115v-404h391v404h115v-967h-115v467z" />
    <glyph glyph-name="I" unicode="I" horiz-adv-x="346" 
d="M117 967h114v-967h-114v967z" />
    <glyph glyph-name="J" unicode="J" horiz-adv-x="578" 
d="M494 254q0 -274 -244 -274q-240 0 -240 282v41h115v-63q0 -164 123 -164q129 0 129 168v723h117v-713v0z" />
    <glyph glyph-name="K" unicode="K" horiz-adv-x="733" 
d="M315 467l-108 -131v-336h-117v967h115v-494l379 494h141l-324 -404l332 -563h-139z" />
    <glyph glyph-name="L" unicode="L" horiz-adv-x="635" 
d="M94 967h117v-871h405v-96h-522v967z" />
    <glyph glyph-name="M" unicode="M" horiz-adv-x="1042" 
d="M842 920l-254 -920h-135l-252 918v-918h-115v967h205l217 -797l10 -100l14 100l222 797h202v-967h-114v920z" />
    <glyph glyph-name="N" unicode="N" horiz-adv-x="811" 
d="M217 844l-16 71v-915h-113v967h186l336 -899v899h115v-967h-190z" />
    <glyph glyph-name="O" unicode="O" horiz-adv-x="811" 
d="M754 481q0 -269 -90 -393q-83 -113 -256 -113t-256 113q-93 123 -93 393q0 259 83.5 382.5t263.5 123.5q179 0 263.5 -123.5t84.5 -382.5zM633 481q0 408 -227 408q-226 0 -226 -408q0 -234 58 -325q24 -42 67 -62t103 -20q119 0 170 82q55 89 55 325z" />
    <glyph glyph-name="P" unicode="P" horiz-adv-x="733" 
d="M700 696q0 -286 -331 -286h-156v-410h-115v967h289q313 0 313 -271zM586 688q0 182 -244 182h-129v-362h117q256 0 256 180z" />
    <glyph glyph-name="Q" unicode="Q" horiz-adv-x="811" 
d="M623 43q-86 -68 -215 -68q-173 0 -256 113q-93 123 -93 393q0 259 83.5 382.5t263.5 123.5q179 0 263.5 -123.5t84.5 -382.5q0 -249 -76 -370l113 -91l-58 -67zM633 481q0 408 -227 408q-226 0 -226 -408q0 -234 58 -325q24 -42 67 -62t103 -20q82 0 131 37l-101 79
l58 68l94 -76q43 93 43 299z" />
    <glyph glyph-name="R" unicode="R" horiz-adv-x="811" 
d="M449 428q-7 -2 -17 -2h-24h-195v-426h-115v967h303q322 0 322 -262q0 -175 -162 -248l193 -457h-125zM598 702q0 168 -211 168h-174v-348h184q201 0 201 180z" />
    <glyph glyph-name="S" unicode="S" horiz-adv-x="733" 
d="M680 258q0 -64 -22.5 -116t-64 -89t-101 -57.5t-134.5 -20.5q-73 0 -130 19.5t-96.5 56t-60 88.5t-20.5 117v49h115q0 -231 190 -231q94 0 150.5 44.5t56.5 123.5q0 98 -63 143q-17 11 -53 26t-93 33q-84 26 -135.5 47.5t-71.5 36.5q-81 63 -81 213q0 53 20.5 98t58 77.5
t91 50.5t120.5 18q299 0 299 -272h-118q0 178 -181 178q-36 0 -67.5 -11t-55.5 -31t-37.5 -48t-13.5 -62q0 -80 56 -127q18 -15 49.5 -30t79.5 -29q85 -26 141.5 -50.5t85.5 -47.5q86 -65 86 -197z" />
    <glyph glyph-name="T" unicode="T" horiz-adv-x="635" 
d="M377 0h-115v870h-262v97h635v-97h-258v-870z" />
    <glyph glyph-name="U" unicode="U" horiz-adv-x="811" 
d="M719 272q0 -292 -313 -292q-314 0 -314 292v695h115v-678q0 -215 199 -215q198 0 198 215v678h115v-695v0z" />
    <glyph glyph-name="V" unicode="V" horiz-adv-x="725" 
d="M289 0l-293 967h127l237 -889h2l240 889h127l-295 -967h-145z" />
    <glyph glyph-name="W" unicode="W" horiz-adv-x="1112" 
d="M743 0l-178 782l-10 107l-8 -107l-178 -782h-140l-229 967h135l166 -891l12 90l174 801h138l186 -891l12 90l154 801h135l-229 -967h-140z" />
    <glyph glyph-name="X" unicode="X" horiz-adv-x="733" 
d="M367 408l-220 -408h-147l303 498l-293 469h135l222 -381l221 381h135l-293 -469l303 -498h-147z" />
    <glyph glyph-name="Y" unicode="Y" horiz-adv-x="723" 
d="M414 0h-115v375l-303 592h127l233 -484l236 484h129l-307 -592v-375z" />
    <glyph glyph-name="Z" unicode="Z" horiz-adv-x="655" 
d="M18 90l496 780h-483v97h600v-93l-492 -778h500v-96h-621v90z" />
    <glyph glyph-name="bracketleft" unicode="[" horiz-adv-x="424" 
d="M119 1028h243v-76h-135v-1081h135v-80h-243v1237z" />
    <glyph glyph-name="backslash" unicode="\" horiz-adv-x="434" 
d="M-4 967h82l354 -967h-82z" />
    <glyph glyph-name="bracketright" unicode="]" horiz-adv-x="424" 
d="M61 -129h136v1081h-136v76h244v-1237h-244v80z" />
    <glyph glyph-name="asciicircum" unicode="^" horiz-adv-x="696" 
d="M348 866l-178 -436h-72l215 537h70l219 -537h-76z" />
    <glyph glyph-name="underscore" unicode="_" horiz-adv-x="696" 
d="M0 -102h696v-76h-696v76z" />
    <glyph glyph-name="grave" unicode="`" horiz-adv-x="424" 
d="M29 987h151l125 -182h-94z" />
    <glyph glyph-name="a" unicode="a" horiz-adv-x="578" 
d="M559 0q-14 -5 -27.5 -6.5t-25.5 -1.5q-101 0 -113 102q-49 -112 -176 -112q-192 0 -192 200q0 142 137 195l186 69q43 16 43 91q0 114 -123 114q-116 0 -116 -127h-101q0 211 228 211q215 0 215 -209v-393q0 -61 41 -61q9 0 24 4v-76zM209 311q-72 -35 -72 -131
q0 -112 92 -112q150 0 150 168v151z" />
    <glyph glyph-name="b" unicode="b" horiz-adv-x="655" 
d="M606 397q0 -169 -47 -278q-61 -139 -190 -139q-128 0 -185 106v-86h-100v965h111v-322q46 94 161 94q128 0 193 -104q57 -89 57 -236zM489 358q0 79 -8 134.5t-25.5 90t-46 50.5t-69.5 16q-150 0 -150 -291q0 -77 8.5 -132t26.5 -90t46.5 -51.5t68.5 -16.5q149 0 149 290
z" />
    <glyph glyph-name="c" unicode="c" horiz-adv-x="578" 
d="M543 250q0 -123 -61.5 -194.5t-178.5 -71.5q-260 0 -260 364q0 389 258 389q55 0 99.5 -17.5t75 -50t47 -77.5t16.5 -100h-103q0 155 -135 155q-89 0 -123 -96q-24 -68 -24 -209q0 -274 147 -274q139 0 139 182h103v0z" />
    <glyph glyph-name="d" unicode="d" horiz-adv-x="655" 
d="M469 86q-57 -106 -184 -106q-131 0 -189 139q-49 107 -49 278q0 146 57 236q65 104 193 104q116 0 162 -94v322h110v-965h-100v86zM463 358q0 291 -150 291q-41 0 -69 -16t-46 -50.5t-26 -90t-8 -134.5q0 -290 149 -290q40 0 68.5 16.5t46.5 51.5t26.5 90t8.5 132z" />
    <glyph glyph-name="e" unicode="e" horiz-adv-x="578" 
d="M152 350q0 -66 4.5 -114.5t15.5 -77.5q17 -48 46.5 -70t74.5 -22q129 0 129 174h104q0 -256 -239 -256q-248 0 -248 387q0 366 252 366q255 0 239 -387h-378zM416 434q0 215 -127 215q-137 0 -137 -215h264z" />
    <glyph glyph-name="f" unicode="f" horiz-adv-x="346" 
d="M219 0h-108v631h-111v86h111v80q0 77 55 129q52 45 123 45q25 0 49 -6v-84q-9 2 -18.5 3t-18.5 1q-82 0 -82 -94v-74h119v-86h-119v-631z" />
    <glyph glyph-name="g" unicode="g" horiz-adv-x="655" 
d="M571 100q0 -344 -274 -344q-91 0 -156 43q-71 50 -71 131h102q0 -36 36 -62t93 -26q46 0 77 14t49.5 43.5t26 75t7.5 109.5q-71 -102 -174 -102q-248 0 -248 383q0 75 14 137t43 114q64 121 185 121q133 0 184 -100v80h106v-617zM463 358q0 293 -154 293
q-153 0 -153 -293q0 -292 153 -292q154 0 154 292z" />
    <glyph glyph-name="h" unicode="h" horiz-adv-x="655" 
d="M467 514q0 135 -117 135q-35 0 -63.5 -12t-49.5 -31.5t-32.5 -44t-11.5 -49.5v-512h-111v967h111v-330q75 100 196 100q189 0 189 -200v-537h-111v514z" />
    <glyph glyph-name="i" unicode="i" horiz-adv-x="268" 
d="M80 967h110v-129h-110v129zM80 717h110v-717h-110v717z" />
    <glyph glyph-name="j" unicode="j" horiz-adv-x="268" 
d="M84 967h111v-129h-111v129zM195 0q0 -246 -162 -246h-16.5t-16.5 2v94q5 -2 9 -2h9q66 0 66 152v717h111v-717z" />
    <glyph glyph-name="k" unicode="k" horiz-adv-x="578" 
d="M270 354l-86 -100v-254h-110v967h110v-582l269 332h127l-238 -279l254 -438h-131z" />
    <glyph glyph-name="l" unicode="l" horiz-adv-x="268" 
d="M80 967h110v-967h-110v967z" />
    <glyph glyph-name="m" unicode="m" horiz-adv-x="1042" 
d="M848 522q0 129 -107 129q-33 0 -62.5 -10t-52 -28.5t-35.5 -44t-13 -56.5v-512h-111v514q0 137 -113 137q-32 0 -60 -10t-50 -28.5t-34.5 -43.5t-12.5 -55v-514h-111v717h107v-90q60 110 184 110q128 0 184 -114q52 114 205 114q40 0 75 -13t61 -37t41 -57t15 -73v-557
h-110v522z" />
    <glyph glyph-name="n" unicode="n" horiz-adv-x="655" 
d="M467 514q0 135 -117 135q-35 0 -63.5 -12t-49.5 -31.5t-32.5 -44t-11.5 -49.5v-512h-111v717h111v-80q75 100 196 100q189 0 189 -200v-537h-111v514z" />
    <glyph glyph-name="o" unicode="o" horiz-adv-x="655" 
d="M600 360q0 -378 -278 -378q-273 0 -273 376q0 379 279 379q272 0 272 -377zM485 358q0 293 -159 293q-162 0 -162 -293q0 -292 160 -292q161 0 161 292z" />
    <glyph glyph-name="p" unicode="p" horiz-adv-x="655" 
d="M602 360q0 -84 -14 -149.5t-43 -116.5q-65 -114 -193 -114q-116 0 -162 94v-316h-110v959h100v-86q58 106 185 106q237 0 237 -377zM485 358q0 291 -149 291q-80 0 -115 -68t-35 -223q0 -290 150 -290q40 0 68.5 15.5t46.5 50t26 89.5t8 135z" />
    <glyph glyph-name="q" unicode="q" horiz-adv-x="655" 
d="M461 74q-46 -94 -162 -94q-127 0 -193 114q-57 102 -57 266q0 377 238 377q126 0 184 -106v86h100v-959h-110v316zM465 358q0 155 -35 223t-115 68q-149 0 -149 -291q0 -80 8 -135t26 -89.5t46 -50t69 -15.5q150 0 150 290z" />
    <glyph glyph-name="r" unicode="r" horiz-adv-x="424" 
d="M424 623q-11 5 -23 6.5t-24 1.5q-34 0 -65.5 -15.5t-55.5 -42.5t-38.5 -63t-14.5 -76v-434h-111v717h107v-119q64 142 225 127v-102v0z" />
    <glyph glyph-name="s" unicode="s" horiz-adv-x="578" 
d="M539 199q0 -52 -21 -92.5t-57.5 -68.5t-85 -43t-103.5 -15q-112 0 -172.5 59t-60.5 170h102q0 -141 135 -141q148 0 148 114q0 62 -49 92q-11 8 -41.5 20.5t-79.5 29.5q-105 34 -143 63q-70 51 -70 143q0 48 17.5 86.5t48 65.5t72 41t89.5 14q240 0 240 -213h-105
q0 127 -127 127q-120 0 -120 -104q0 -61 47 -94q8 -5 30 -15t60 -24q69 -26 110.5 -43.5t57.5 -28.5q78 -54 78 -143z" />
    <glyph glyph-name="t" unicode="t" horiz-adv-x="346" 
d="M209 137q0 -51 53 -51h74v-86h-117q-121 0 -121 137v494h-106v86h106v194h111v-194h129v-86h-129v-494z" />
    <glyph glyph-name="u" unicode="u" horiz-adv-x="655" 
d="M459 80q-75 -100 -189 -100q-182 0 -182 200v537h111v-514q0 -41 5 -67t17 -41t33.5 -21t54.5 -6q69 0 113 53q37 47 37 98v498h110v-717h-110v80z" />
    <glyph glyph-name="v" unicode="v" horiz-adv-x="578" 
d="M225 0l-225 717h115l174 -631l174 631h115l-226 -717h-127z" />
    <glyph glyph-name="w" unicode="w" horiz-adv-x="889" 
d="M571 0l-129 633l-123 -633h-114l-197 717h113l141 -633l125 633h117l125 -633l141 633h113l-197 -717h-115z" />
    <glyph glyph-name="x" unicode="x" horiz-adv-x="578" 
d="M291 281l-182 -281h-117l241 369l-227 348h115l170 -260l170 260h114l-227 -348l242 -369h-117z" />
    <glyph glyph-name="y" unicode="y" horiz-adv-x="578" 
d="M315 -80q-12 -38 -33.5 -68t-50 -51t-61.5 -32t-68 -11q-20 0 -38.5 3.5t-36.5 11.5v84q27 -13 61 -13q112 0 145 103l13 39l-248 731h115l176 -623l182 623h111l-267 -797v0z" />
    <glyph glyph-name="z" unicode="z" horiz-adv-x="522" 
d="M23 82l362 551h-346v84h457v-82l-357 -551h361v-84h-477v82z" />
    <glyph glyph-name="braceleft" unicode="{" horiz-adv-x="383" 
d="M362 -199q-227 0 -227 154v324q0 95 -125 133q125 36 125 133v323q0 154 227 154v-14q-114 0 -114 -131v-304q0 -143 -137 -161q137 -20 137 -162v-303q0 -131 114 -131v-15v0z" />
    <glyph glyph-name="bar" unicode="|" horiz-adv-x="307" 
d="M111 967h88v-967h-88v967z" />
    <glyph glyph-name="braceright" unicode="}" horiz-adv-x="383" 
d="M362 412q-124 -37 -124 -133v-324q0 -154 -228 -154v15q115 0 115 131v303q0 142 137 162q-137 18 -137 161v304q0 131 -115 131v14q228 0 228 -154v-323q0 -97 124 -133z" />
    <glyph glyph-name="asciitilde" unicode="~" horiz-adv-x="655" 
d="M621 385q-62 -141 -160 -141q-56 0 -133 41q-74 43 -121 43q-69 0 -121 -111l-49 59q52 154 162 154q58 0 135 -47q38 -23 70 -34t55 -11q56 0 108 100l54 -53v0z" />
    <glyph glyph-name="quotedbl" unicode="&#x22;" horiz-adv-x="307" 
d="M197 954h69v-292h-69v292zM41 954h72v-292h-72v292z" />
    <glyph glyph-name="exclam" unicode="!" horiz-adv-x="424" 
d="M178 236l-33 419v314h134v-314l-33 -419h-68zM145 127h134v-127h-134v127z" />
    <glyph glyph-name="guillemotleft" unicode="&#xab;" horiz-adv-x="655" 
d="M344 440l195 199v-107l-129 -133l129 -131v-106l-195 200v78zM115 440l194 199v-107l-129 -133l129 -131v-106l-194 200v78z" />
    <glyph glyph-name="logicalnot" unicode="&#xac;" horiz-adv-x="707" 
d="M579 297h-534v90h616v-268h-82v178z" />
    <glyph glyph-name="registered" unicode="&#xae;" horiz-adv-x="1032" 
d="M1020 483q0 -209 -148 -356q-147 -147 -356 -147t-356 147q-148 147 -148 356t148 357q147 147 356 147t356 -147q148 -148 148 -357zM948 483q0 181 -127 305q-127 130 -305 130t-305 -130q-127 -124 -127 -305q0 -177 127 -307q127 -127 305 -127t305 127
q127 130 127 307zM522 461h-127v-260h-69v567h231q201 0 201 -152q0 -33 -11.5 -61t-32.5 -48.5t-50.5 -32.5t-65.5 -13l164 -260h-82zM686 618q0 95 -137 95h-154v-199h170q121 0 121 104z" />
    <glyph glyph-name="degree" unicode="&#xb0;" horiz-adv-x="541" 
d="M266 915q43 0 80.5 -16t65 -43t43.5 -64t16 -79t-16 -79t-43.5 -64.5t-65 -43.5t-80.5 -16q-41 0 -77 15.5t-63.5 43t-43.5 64.5t-16 80q0 40 15.5 77t42.5 64.5t63.5 44t78.5 16.5zM266 858q-31 0 -57.5 -11t-46 -30.5t-30.5 -46t-11 -57.5q0 -30 11.5 -57t31 -47
t46 -32t56.5 -12q62 0 105 43q45 46 45 105q0 30 -12 56.5t-32.5 46t-47.5 31t-58 11.5z" />
    <glyph glyph-name="paragraph" unicode="&#xb6;" horiz-adv-x="727" 
d="M567 -244v1356h-145v-1356h-55v805q-168 0 -263 62q-104 74 -104 235q0 153 94 229q90 66 248 66h389v-41h-102v-1356h-62z" />
    <glyph glyph-name="periodcentered" unicode="&#xb7;" horiz-adv-x="338" 
d="M170 520q31 0 51.5 -21.5t20.5 -49.5q0 -31 -21.5 -52.5t-50.5 -21.5q-33 0 -53.5 20.5t-20.5 53.5q0 30 20.5 50.5t53.5 20.5z" />
    <glyph glyph-name="periodcentered" unicode="&#x2219;" horiz-adv-x="338" 
d="M170 520q31 0 51.5 -21.5t20.5 -49.5q0 -31 -21.5 -52.5t-50.5 -21.5q-33 0 -53.5 20.5t-20.5 53.5q0 30 20.5 50.5t53.5 20.5z" />
    <glyph glyph-name="guillemotright" unicode="&#xbb;" horiz-adv-x="655" 
d="M344 268l129 131l-129 133v107l195 -201v-80l-195 -196v106zM115 268l129 131l-129 133v107l194 -201v-80l-194 -196v106z" />
    <glyph glyph-name="multiply" unicode="&#xd7;" horiz-adv-x="696" 
d="M348 305l-229 -229l-64 63l230 230l-230 229l64 64l229 -230l230 230l63 -64l-229 -229l229 -230l-63 -63z" />
    <glyph glyph-name="divide" unicode="&#xf7;" horiz-adv-x="696" 
d="M420 604q0 -29 -21.5 -50.5t-50.5 -21.5t-50.5 21.5t-21.5 50.5t21.5 50.5t50.5 21.5t50.5 -21.5t21.5 -50.5zM41 414h614v-90h-614v90zM420 133q0 -29 -21.5 -50.5t-50.5 -21.5t-50.5 21.5t-21.5 50.5t21.5 50.5t50.5 21.5t50.5 -21.5t21.5 -50.5z" />
    <glyph glyph-name="uni0E00" unicode="&#xe00;" horiz-adv-x="205" 
 />
    <glyph glyph-name="uni0E01" unicode="&#xe01;" horiz-adv-x="725" 
d="M545 578q0 37 -13 68t-37 53.5t-57 35.5t-73 13q-144 0 -185 -113l80 -57q-80 -23 -80 -103v-475h-108v463q0 80 69 106l-84 58q19 80 93 139q84 63 215 63q64 0 117.5 -17.5t91 -49t58.5 -76.5t21 -100v-586h-108v578z" />
    <glyph glyph-name="uni0E02" unicode="&#xe02;" horiz-adv-x="682" 
d="M610 215q0 -53 -19 -94.5t-54 -70.5t-84.5 -44.5t-110.5 -15.5t-110.5 15.5t-85 45t-55 71t-19.5 93.5v295q0 61 67 88q68 27 68 68v10q0 61 -76 61h-63l34 82h86q125 0 125 -117v-43q0 -60 -67 -94q-66 -35 -66 -71v-271q0 -151 162 -151q160 0 160 151v596h108v-604v0z
" />
    <glyph glyph-name="uni0E03" unicode="&#xe03;" horiz-adv-x="692" 
d="M621 215q0 -53 -19.5 -94.5t-54.5 -70.5t-84.5 -44.5t-110.5 -15.5q-59 0 -108 15.5t-84.5 45t-55.5 71t-20 93.5v338q0 78 78 141q-13 -5 -26 -6.5t-27 -1.5q-89 0 -129 72l67 71q21 -55 105 -55q78 0 106 55l78 -73l-92 -86q-54 -60 -54 -117v-330q0 -151 162 -151
t162 151v596h107v-604v0z" />
    <glyph glyph-name="uni0E04" unicode="&#xe04;" horiz-adv-x="725" 
d="M545 578q0 78 -47.5 124t-135.5 46q-84 0 -133 -46t-49 -124v-111h217v-92h-217v-375h-108v584q0 55 21.5 100.5t60 77.5t92 49.5t116.5 17.5q64 0 117.5 -17.5t92 -49.5t60 -77.5t21.5 -100.5v-584h-108v578z" />
    <glyph glyph-name="uni0E05" unicode="&#xe05;" horiz-adv-x="745" 
d="M567 616q0 97 -61 115q-41 -80 -133 -80t-131 80q-62 -18 -62 -115v-149h217v-92h-217v-375h-108v635q0 42 14.5 78t41.5 61.5t64.5 40t83.5 14.5q0 -17 7 -32.5t19.5 -28t30.5 -20t40 -7.5t40 7.5t31 20t20 28t7 32.5q46 0 83.5 -14.5t64 -40t41 -61.5t14.5 -78v-635
h-107v616z" />
    <glyph glyph-name="uni0E06" unicode="&#xe06;" horiz-adv-x="756" 
d="M684 223q0 -52 -18.5 -95t-51.5 -73.5t-77.5 -47.5t-96.5 -17q-75 0 -133 31t-96 94v-115h-129q11 26 15.5 50.5t4.5 47.5v496q0 65 35 100q-18 -6 -39 -6q-81 0 -121 70l68 71q21 -55 92 -55q68 0 99 55l77 -75q-102 -59 -102 -144v-344q0 -78 68 -137q66 -57 135 -57
q72 0 116.5 45.5t44.5 124.5v577h109v-596v0z" />
    <glyph glyph-name="uni0E07" unicode="&#xe07;" horiz-adv-x="686" 
d="M631 436q0 -116 -12 -198.5t-39 -135.5t-69.5 -77.5t-102.5 -24.5h-226l-172 819h113l156 -737h88q43 0 72.5 17.5t47.5 58.5t25.5 108t7.5 166q0 94 -9.5 156.5t-29.5 93.5q-36 55 -137 55h-61l53 82h67q138 0 187 -94q41 -80 41 -289z" />
    <glyph glyph-name="uni0E08" unicode="&#xe08;" horiz-adv-x="682" 
d="M633 436q0 -199 -88 -317q-89 -119 -215 -119h-127l-74 375q-9 54 -84 57l88 84q79 0 94 -76l72 -358q88 6 147 84q36 45 54 108.5t20 145.5q2 70 -12 130.5t-42 104t-69.5 68.5t-93.5 25q-74 0 -129 -46q-46 -36 -61 -88h-123q27 89 104 148q88 67 217 67
q73 0 132.5 -27t101.5 -78t65 -124t23 -164z" />
    <glyph glyph-name="uni0E09" unicode="&#xe09;" horiz-adv-x="723" 
d="M545 113q-62 -123 -219 -123q-53 0 -99.5 16.5t-81 47.5t-54 75t-19.5 98v146q0 23 -5 47.5t-16 50.5h127v-219q0 -183 182 -180q41 1 75 15.5t58.5 40t38 61t13.5 77.5v297q0 42 -13.5 76.5t-38.5 58.5t-60 37t-77 13q-38 0 -70 -10.5t-56.5 -28.5t-40.5 -42.5
t-21 -52.5h-123q15 86 100 150q92 65 209 65q64 0 118 -17t94 -49t62.5 -78t22.5 -103v-484q0 -23 5 -47.5t16 -50.5h-127v113z" />
    <glyph glyph-name="uni0E0A" unicode="&#xe0a;" horiz-adv-x="694" 
d="M623 215q0 -53 -20 -94.5t-56 -70.5t-87 -44.5t-112 -15.5q-62 0 -113 15.5t-87 44.5t-56 70.5t-20 94.5v604h108v-596q0 -151 168 -151q166 0 166 151v215q0 30 -12 55t-34.5 42.5t-53.5 27.5t-68 10h-67v82h67q168 0 168 113v51h109v-57q0 -128 -179 -148q40 0 73 -12
t56.5 -33.5t36.5 -50.5t13 -63v-240v0z" />
    <glyph glyph-name="uni0E0B" unicode="&#xe0b;" horiz-adv-x="705" 
d="M633 215q0 -106 -73 -165.5t-202 -59.5q-61 0 -111.5 15.5t-86.5 44.5t-56 70.5t-20 94.5v338q0 78 78 141q-13 -5 -26 -6.5t-27 -1.5q-89 0 -129 72l67 71q21 -55 105 -55q78 0 106 55l78 -73l-92 -86q-54 -60 -54 -117v-330q0 -151 168 -151t168 151v215q0 30 -12.5 55
t-35 42.5t-54 27.5t-68.5 10h-45v82h45q170 0 170 113v51h107v-57q0 -129 -178 -148q40 0 72.5 -12t56 -33.5t36.5 -50.5t13 -63v-240v0z" />
    <glyph glyph-name="uni0E0C" unicode="&#xe0c;" horiz-adv-x="1155" 
d="M1083 203q0 -51 -16 -91t-45.5 -67t-70 -41t-89.5 -14q-128 0 -209 104v-94h-129q11 26 16 50.5t5 47.5v480q0 37 -13 68t-37 53.5t-57 35.5t-73 13q-144 0 -185 -113l80 -57q-80 -23 -80 -103v-393h123l-33 -82h-198v463q0 80 69 106l-84 58q19 80 93 139q84 63 215 63
q64 0 117.5 -17.5t91 -49t58.5 -76.5t21 -100v-340q0 -75 60 -129q51 -45 121 -45q141 0 141 149v598h108v-616v0z" />
    <glyph glyph-name="uni0E0D" unicode="&#xe0d;" horiz-adv-x="1155" 
d="M1083 84q0 -268 -260 -268h-280v82h268q164 0 164 149q-51 -57 -174 -57q-103 0 -174 47q-82 54 -82 158v383q0 37 -13 68t-37 53.5t-57 35.5t-73 13q-144 0 -185 -113l80 -57q-80 -23 -80 -103v-393h123l-33 -82h-198v463q0 80 69 106l-84 58q19 80 93 139q84 63 215 63
q64 0 117.5 -17.5t91 -49t58.5 -76.5t21 -100v-379q0 -68 52 -105q45 -30 110 -30q160 0 160 135v612h108v-735v0z" />
    <glyph glyph-name="uni0E0E" unicode="&#xe0e;" horiz-adv-x="745" 
d="M565 -287q-43 66 -135 94q-67 -83 -170 -94t-166 35v105q63 -71 158 -62q107 9 145 113q106 -15 170 -76v750q0 37 -12 68.5t-35.5 54t-57 35t-75.5 12.5q-145 0 -184 -113l80 -57q-82 -22 -82 -103v-475h-166l-33 82h92v381q0 79 70 106l-84 58q17 80 92 139
q84 63 215 63q64 0 117 -17.5t91 -49t58.5 -76.5t20.5 -100v-873h-109v0z" />
    <glyph glyph-name="uni0E0F" unicode="&#xe0f;" horiz-adv-x="745" 
d="M455 -287q-2 31 -27 53.5t-61 22.5t-61 -22.5t-30 -53.5h-223v86h195q25 72 119 72q91 0 112 -72h88v779q0 37 -12 68.5t-35.5 54t-57 35t-75.5 12.5q-145 0 -184 -113l80 -57q-82 -22 -82 -103v-475h-166l-33 82h92v381q0 79 70 106l-84 58q17 80 92 139q84 63 215 63
q64 0 117 -17.5t91 -49t58.5 -76.5t20.5 -100v-873h-219v0z" />
    <glyph glyph-name="uni0E10" unicode="&#xe10;" horiz-adv-x="694" 
d="M682 881q-9 -121 -145 -146q96 -108 96 -299q0 -199 -88 -317q-89 -119 -215 -119h-127l-74 375q-9 54 -84 57l88 84q79 0 94 -76l72 -358q88 6 147 84q36 45 54 108.5t20 145.5q2 70 -12 130.5t-42 104t-69.5 68.5t-93.5 25q-74 0 -129 -46q-46 -36 -61 -88h-123
q27 89 104 148q88 67 217 67q38 0 97 -18q57 -18 84 -18q15 0 28 7t21.5 19t12 28t-0.5 34h129zM383 -246q-2 31 -27 53.5t-61 22.5q-35 0 -60 -22.5t-30 -53.5h-172v86h143q13 35 42 53.5t77 18.5q90 0 113 -72h77v99h107v-185h-209z" />
    <glyph glyph-name="uni0E11" unicode="&#xe11;" horiz-adv-x="776" 
d="M596 582q0 153 -72 153q-82 0 -190 -284q-48 -123 -78 -235.5t-45 -215.5h-109v553q0 111 35 141q-11 -5 -22.5 -6.5t-22.5 -1.5q-75 0 -115 72l68 71q21 -55 92 -55q68 0 99 55l75 -73l-69 -70q-31 -46 -31 -133v-246q20 88 47.5 168t65.5 156q100 198 204 198
q177 0 177 -217v-612h-109v582z" />
    <glyph glyph-name="uni0E12" unicode="&#xe12;" horiz-adv-x="1196" 
d="M1124 203q0 -51 -16 -91t-45.5 -67t-70 -41t-89.5 -14q-125 0 -209 104v-94h-127q11 26 16 50.5t5 47.5v518q0 97 -66 115q-39 -80 -139 -80q-98 0 -137 80q-66 -18 -66 -115v-329q0 -65 -12 -162h4q8 20 26.5 55.5t47.5 87.5l133 211h-127l35 82h196v-82l-303 -479h-108
v635q0 42 15.5 78t43 61.5t66 40t84.5 14.5q0 -17 8 -32.5t21.5 -28t32.5 -20t40 -7.5q22 0 41 7.5t33 20t22 28t8 32.5q46 0 84 -14.5t65.5 -40t42.5 -61.5t15 -78v-389q0 -75 60 -129q49 -45 123 -45q141 0 141 149v598h106v-616v0z" />
    <glyph glyph-name="uni0E13" unicode="&#xe13;" horiz-adv-x="1155" 
d="M975 92q-44 -102 -197 -102q-97 0 -162 53q-35 29 -53 69.5t-18 94.5v371q0 37 -13 68t-37 53.5t-57 35.5t-73 13q-144 0 -185 -113l80 -57q-80 -23 -80 -103v-393h123l-33 -82h-198v463q0 80 69 106l-84 58q19 80 93 139q84 63 215 63q64 0 117.5 -17.5t91 -49
t58.5 -76.5t21 -100v-357q0 -157 156 -157q33 0 63 12.5t53 35t36.5 55t13.5 71.5v573h108v-721q0 -46 21 -98h-129v92z" />
    <glyph glyph-name="uni0E14" unicode="&#xe14;" horiz-adv-x="766" 
d="M588 578q0 39 -15 70.5t-42 53.5t-65 34t-83 12t-82.5 -12t-64.5 -34t-41.5 -53.5t-14.5 -70.5v-291q0 -65 -12 -162h4q17 42 72 143l135 211h-127l35 82h196v-82l-303 -479h-108v584q0 55 23 100.5t64 77.5t98.5 49.5t125.5 17.5q70 0 127 -17.5t98 -49.5t63.5 -77.5
t22.5 -100.5v-584h-106v578z" />
    <glyph glyph-name="uni0E15" unicode="&#xe15;" horiz-adv-x="766" 
d="M588 616q0 97 -66 115q-39 -80 -139 -80q-98 0 -137 80q-66 -18 -66 -115v-329q0 -65 -12 -162h4q8 20 26.5 56t47.5 87l133 211h-127l35 82h196v-82l-303 -479h-108v635q0 42 15.5 78t43 61.5t66 40t84.5 14.5q0 -17 8 -32.5t21.5 -28t32.5 -20t40 -7.5q22 0 41 7.5
t33 20t22 28t8 32.5q46 0 84 -14.5t65.5 -40t42.5 -61.5t15 -78v-635h-106v616z" />
    <glyph glyph-name="uni0E16" unicode="&#xe16;" horiz-adv-x="725" 
d="M545 578q0 37 -13 68t-37 53.5t-57 35.5t-73 13q-144 0 -185 -113l80 -57q-80 -23 -80 -103v-393h123l-33 -82h-198v463q0 80 69 106l-84 58q19 80 93 139q84 63 215 63q64 0 117.5 -17.5t91 -49t58.5 -76.5t21 -100v-586h-108v578z" />
    <glyph glyph-name="uni0E17" unicode="&#xe17;" horiz-adv-x="725" 
d="M545 557q0 191 -160 191q-41 0 -78 -15t-65.5 -41.5t-45 -62t-16.5 -76.5v-553h-108v721q0 23 -5 47.5t-16 50.5h129v-112q77 122 242 122q231 0 231 -247v-582h-108v557z" />
    <glyph glyph-name="uni0E18" unicode="&#xe18;" horiz-adv-x="713" 
d="M647 215q0 -52 -21.5 -93.5t-60 -71t-92 -45t-117.5 -15.5q-62 0 -115 15.5t-92 45t-61 71t-22 93.5v195h108v-187q0 -77 57 -117q50 -34 125 -34q76 0 125 34q58 40 58 117v94q0 136 -189 154q-289 27 -289 162q0 82 84 139q82 57 201 57q61 0 112.5 -15t90.5 -43
t64.5 -68t33.5 -89h-112q-4 28 -20 52.5t-40.5 42t-56.5 28t-68 11.5q-34 1 -65 -7t-55 -23t-37.5 -35t-12.5 -42q3 -69 219 -90q248 -24 248 -201v-135v0z" />
    <glyph glyph-name="uni0E19" unicode="&#xe19;" horiz-adv-x="725" 
d="M545 113q-59 -123 -219 -123q-109 0 -179 67q-75 69 -75 191v571h108v-547q0 -200 182 -200q40 0 74 14.5t58 40.5t37.5 61.5t13.5 77.5v553h108v-721q0 -23 5 -47.5t16 -50.5h-129v113z" />
    <glyph glyph-name="uni0E1A" unicode="&#xe1a;" horiz-adv-x="725" 
d="M653 236q0 -56 -21.5 -101.5t-60 -77.5t-92 -49.5t-117.5 -17.5q-63 0 -116.5 17.5t-92 49.5t-60 77.5t-21.5 101.5v583h108v-577q0 -79 48.5 -124.5t133.5 -45.5q88 0 135.5 45.5t47.5 124.5v577h108v-583v0z" />
    <glyph glyph-name="uni0E1B" unicode="&#xe1b;" horiz-adv-x="725" 
d="M653 236q0 -56 -21.5 -101.5t-60 -77.5t-92 -49.5t-117.5 -17.5q-63 0 -116.5 17.5t-92 49.5t-60 77.5t-21.5 101.5v583h108v-577q0 -79 48.5 -124.5t133.5 -45.5q88 0 135.5 45.5t47.5 124.5v823h108v-829v0z" />
    <glyph glyph-name="uni0E1C" unicode="&#xe1c;" horiz-adv-x="850" 
d="M778 154q0 -87 -63 -127q-52 -37 -133 -37q-116 0 -156 67q-40 -67 -156 -67q-83 0 -135 37q-63 40 -63 127v665h174l30 -92h-96v-573q0 -82 96 -82q95 0 95 82v665h108v-665q0 -82 96 -82q95 0 95 82v665h108v-665v0z" />
    <glyph glyph-name="uni0E1D" unicode="&#xe1d;" horiz-adv-x="850" 
d="M778 154q0 -87 -63 -127q-52 -37 -133 -37q-116 0 -156 67q-40 -67 -156 -67q-83 0 -135 37q-63 40 -63 127v665h174l30 -92h-96v-573q0 -82 96 -82q95 0 95 82v665h108v-665q0 -82 96 -82q95 0 95 82v911h108v-911v0z" />
    <glyph glyph-name="uni0E1E" unicode="&#xe1e;" horiz-adv-x="850" 
d="M778 154q0 -87 -63 -127q-52 -37 -133 -37q-116 0 -156 67q-40 -67 -156 -67q-83 0 -135 37q-63 40 -63 127v665h108v-665q0 -82 96 -82q95 0 95 82v665h108v-665q0 -82 96 -82q95 0 95 82v665h108v-665v0z" />
    <glyph glyph-name="uni0E1F" unicode="&#xe1f;" horiz-adv-x="850" 
d="M778 154q0 -87 -63 -127q-52 -37 -133 -37q-116 0 -156 67q-40 -67 -156 -67q-83 0 -135 37q-63 40 -63 127v665h108v-665q0 -82 96 -82q95 0 95 82v665h108v-665q0 -82 96 -82q95 0 95 82v911h108v-911v0z" />
    <glyph glyph-name="uni0E20" unicode="&#xe20;" horiz-adv-x="745" 
d="M567 578q0 37 -13 68t-37 53.5t-57 35.5t-73 13q-145 0 -184 -113l80 -57q-82 -22 -82 -103v-475h-166l-33 82h92v381q0 79 70 106l-84 58q17 80 92 139q84 63 215 63q64 0 117 -17.5t91 -49t58.5 -76.5t20.5 -100v-586h-107v578z" />
    <glyph glyph-name="uni0E21" unicode="&#xe21;" horiz-adv-x="725" 
d="M653 223q0 -52 -18.5 -95t-51.5 -73.5t-77.5 -47.5t-95.5 -17q-153 0 -230 125v-115h-129q11 26 16 50.5t5 47.5v721h108v-553q0 -78 68 -137q66 -57 135 -57q72 0 117 45.5t45 124.5v577h108v-596v0z" />
    <glyph glyph-name="uni0E22" unicode="&#xe22;" horiz-adv-x="715" 
d="M643 236q0 -56 -21.5 -101.5t-59.5 -77.5t-92 -49.5t-118 -17.5q-65 0 -118.5 17.5t-91.5 49.5t-59.5 77.5t-21.5 101.5v61q0 34 11.5 64.5t32.5 54.5t50 38.5t64 16.5q-34 3 -62.5 15t-49.5 32.5t-33 48.5t-13 62q-1 39 14 73.5t42.5 60.5t65.5 41t83 15h88l58 -86h-111
q-134 0 -131 -110q3 -59 57 -91q48 -25 113 -20l66 4v-86h-66q-38 0 -69 -10t-53.5 -27.5t-35 -42.5t-12.5 -55v-53q0 -79 48.5 -124.5t133.5 -45.5q88 0 135.5 45.5t47.5 124.5v577h108v-583v0z" />
    <glyph glyph-name="uni0E23" unicode="&#xe23;" horiz-adv-x="662" 
d="M618 240q0 -59 -20 -105.5t-57.5 -78.5t-90 -49t-116.5 -17q-67 0 -122 17.5t-94 51t-59.5 81.5t-19.5 110h119q-4 -38 8 -70t36 -55.5t57 -37t71 -13.5q37 0 69 11t56 30.5t37.5 47t13.5 60.5q0 130 -195 172q-250 55 -250 211q0 98 82 162q76 61 187 61
q54 0 101.5 -15.5t83 -43.5t57.5 -68t26 -88h-111q-1 28 -14 52.5t-34.5 42.5t-49.5 28.5t-59 10.5q-32 0 -60 -10t-49.5 -27.5t-34 -41t-12.5 -51.5q0 -62 59 -98q41 -25 150 -49q235 -52 235 -231z" />
    <glyph glyph-name="uni0E24" unicode="&#xe24;" horiz-adv-x="725" 
d="M545 578q0 37 -13 68t-37 53.5t-57 35.5t-73 13q-144 0 -185 -113l80 -57q-80 -23 -80 -103v-393h103l-33 -82h-178v463q0 80 69 106l-84 58q19 80 93 139q84 63 215 63q64 0 117.5 -17.5t91 -49t58.5 -76.5t21 -100v-873h-108v865z" />
    <glyph glyph-name="uni0E25" unicode="&#xe25;" horiz-adv-x="721" 
d="M541 461q-37 -31 -242 -78q-143 -35 -143 -154q0 -73 55 -112q49 -37 125 -37q42 0 86 12l-60 -92q-15 -2 -30 -3t-29 -1q-117 0 -186 57q-76 61 -76 172q0 88 65 156q33 31 73 52.5t91 33.5q80 19 122.5 30t49.5 13q95 38 95 106q0 28 -12 52.5t-34 42t-53.5 27.5
t-70.5 10q-38 0 -69.5 -10.5t-55 -28.5t-37.5 -42.5t-17 -52.5h-122q6 46 30.5 85.5t63.5 68t90.5 45t111.5 16.5q61 0 114 -15.5t91 -44.5t60 -70.5t22 -92.5v-606h-108v461z" />
    <glyph glyph-name="uni0E26" unicode="&#xe26;" horiz-adv-x="745" 
d="M567 578q0 37 -13 68t-37 53.5t-57 35.5t-73 13q-145 0 -184 -113l80 -57q-82 -22 -82 -103v-475h-166l-33 82h92v381q0 79 70 106l-84 58q17 80 92 139q84 63 215 63q64 0 117 -17.5t91 -49t58.5 -76.5t20.5 -100v-873h-107v865z" />
    <glyph glyph-name="uni0E27" unicode="&#xe27;" horiz-adv-x="666" 
d="M614 410q0 -420 -297 -420q-60 0 -110.5 16.5t-87 47t-58.5 74t-26 97.5h112q16 -153 170 -153q189 0 189 338t-189 338q-128 0 -161 -134h-115q8 47 32.5 86.5t61 68t83.5 44.5t99 16q297 0 297 -419z" />
    <glyph glyph-name="uni0E28" unicode="&#xe28;" horiz-adv-x="735" 
d="M733 881q0 -99 -149 -129q69 -69 69 -168v-584h-108v578q0 78 -47.5 124t-135.5 46q-84 0 -133 -46t-49 -124v-111h217v-92h-217v-375h-108v584q0 55 21.5 100.5t60 77.5t92 49.5t116.5 17.5q25 0 51.5 -4t49 -8.5t39 -8t22.5 -3.5q77 0 80 76h129v0z" />
    <glyph glyph-name="uni0E29" unicode="&#xe29;" horiz-adv-x="745" 
d="M653 389v-153q0 -56 -21.5 -101.5t-60 -77.5t-92 -49.5t-117.5 -17.5q-63 0 -116.5 17.5t-92 49.5t-60 77.5t-21.5 101.5v583h108v-577q0 -79 48.5 -124.5t133.5 -45.5q88 0 135.5 45.5t47.5 124.5v147h-215v156h108v-74h107v348h108v-348h105l-53 -82h-52z" />
    <glyph glyph-name="uni0E2A" unicode="&#xe2a;" horiz-adv-x="741" 
d="M760 881q-10 -123 -156 -146q45 -51 45 -129v-606h-108v461q-37 -31 -242 -78q-143 -35 -143 -154q0 -73 55 -112q49 -37 125 -37q42 0 86 12l-60 -92q-15 -2 -30 -3t-29 -1q-117 0 -186 57q-76 61 -76 172q0 88 65 156q33 31 73 52.5t91 33.5q80 19 122.5 30t49.5 13
q95 38 95 106q0 28 -12 52.5t-34 42t-53.5 27.5t-70.5 10q-38 0 -69.5 -10.5t-55 -28.5t-37.5 -42.5t-17 -52.5h-122q6 46 30.5 85.5t63.5 68t90.5 45t111.5 16.5q80 0 181 -34q5 -2 8 -2h8q27 0 50.5 19t23.5 50v9.5t-2 9.5h129v0z" />
    <glyph glyph-name="uni0E2B" unicode="&#xe2b;" horiz-adv-x="745" 
d="M569 559q0 43 -28 68.5t-66 25.5q-98 0 -199 -143q-100 -139 -100 -248v-262h-104v721q0 23 -5 47.5t-16 50.5h125v-315q28 68 105 139q38 35 73.5 55.5t67.5 28.5h-105v92h357v-92h-127q127 -27 127 -166v-561h-105v559z" />
    <glyph glyph-name="uni0E2C" unicode="&#xe2c;" horiz-adv-x="850" 
d="M799 1004q0 -70 -74 -111q-28 -16 -59 -23.5t-66 -9.5q40 0 73 -12t56 -33.5t36 -51t13 -63.5v-546q0 -87 -63 -127q-52 -37 -133 -37q-116 0 -156 67q-40 -67 -156 -67q-83 0 -135 37q-63 40 -63 127v665h108v-665q0 -82 96 -82q95 0 95 82v579h108v-579q0 -82 96 -82
q95 0 95 82v530q0 30 -12 55t-34.5 42.5t-53.5 27.5t-68 10h-68v82h68q190 0 190 111v28h107v-36v0z" />
    <glyph glyph-name="uni0E2D" unicode="&#xe2d;" horiz-adv-x="705" 
d="M643 276q0 -68 -20 -121.5t-58 -90t-92 -55.5t-121 -19q-68 0 -121.5 19t-91.5 55.5t-58 90t-20 121.5v216h291v-93h-182v-116q0 -100 47.5 -155.5t134.5 -55.5q88 0 135.5 55.5t47.5 155.5v274q0 191 -183 191q-87 0 -134.5 -46t-47.5 -124h-109v6q0 55 21 100t59 77.5
t92 50t119 17.5q67 0 120.5 -18t91.5 -52.5t58.5 -84t20.5 -111.5v-287v0z" />
    <glyph glyph-name="uni0E2E" unicode="&#xe2e;" horiz-adv-x="715" 
d="M711 881q-6 -102 -140 -123q72 -66 72 -174v-308q0 -68 -20 -121.5t-58 -90t-92 -55.5t-121 -19q-68 0 -121.5 19t-91.5 55.5t-58 90t-20 121.5v216h291v-93h-182v-116q0 -100 47.5 -155.5t134.5 -55.5q88 0 135.5 55.5t47.5 155.5v274q0 191 -183 191q-87 0 -134.5 -46
t-47.5 -124h-109v6q0 55 21 100t59 77.5t92 50t119 17.5q22 0 148 -18q79 -12 82 70h129v0z" />
    <glyph glyph-name="uni0E2F" unicode="&#xe2f;" horiz-adv-x="618" 
d="M438 639q-17 -35 -69 -66q-62 -36 -127 -36q-49 0 -93 13.5t-77 37.5t-52.5 56.5t-19.5 70.5q0 57 41 104h117q-41 -39 -41 -90q0 -54 47 -86q40 -28 100 -25q34 3 65.5 16.5t55.5 36.5t38.5 53.5t14.5 68.5v26h109v-819h-109v639z" />
    <glyph glyph-name="uni0E30" unicode="&#xe30;" horiz-adv-x="350" 
d="M51 561v156h109v-74h170l-45 -82h-234zM51 102v156h109v-74h170l-45 -82h-234z" />
    <glyph glyph-name="uni0E31" unicode="&#xe31;" 
d="M-395 1077h108v-84h342v-82h-450v166z" />
    <glyph glyph-name="uni0E32" unicode="&#xe32;" horiz-adv-x="588" 
d="M408 563q0 185 -148 185q-33 0 -60.5 -11.5t-47 -30t-30.5 -43t-11 -49.5h-111q6 86 74 148q76 67 184 67q258 0 258 -247v-582h-108v563z" />
    <glyph glyph-name="uni0E33" unicode="&#xe33;" horiz-adv-x="588" 
d="M-8 1020q0 -51 -34 -80t-85 -29t-85 29t-34 80q0 49 34 78.5t85 29.5t85 -29.5t34 -78.5zM408 563q0 185 -148 185q-33 0 -60.5 -11.5t-47 -30t-30.5 -43t-11 -49.5h-111q6 86 74 148q76 67 184 67q258 0 258 -247v-582h-108v563zM-80 1020q0 47 -47 47t-47 -47t47 -47
t47 47z" />
    <glyph glyph-name="uni0E34" unicode="&#xe34;" 
d="M-621 993h549v-82h-549v82z" />
    <glyph glyph-name="uni0E35" unicode="&#xe35;" 
d="M-621 993h441v123h108v-205h-549v82z" />
    <glyph glyph-name="uni0E36" unicode="&#xe36;" 
d="M-12 1020q0 -23 -8.5 -42.5t-24 -34.5t-36.5 -23.5t-46 -8.5h-494v82h385q-4 15 -4 27q0 22 9 41.5t24 34.5t35.5 23.5t44.5 8.5t45 -8.5t36.5 -23.5t24.5 -34.5t9 -41.5zM-78 1020q0 47 -49 47t-49 -47t49 -47t49 47z" />
    <glyph glyph-name="uni0E37" unicode="&#xe37;" 
d="M-621 993h291v123h86v-123h64v123h108v-205h-549v82z" />
    <glyph glyph-name="uni0E38" unicode="&#xe38;" 
d="M-180 -174h-88v92h196v-266h-108v174z" />
    <glyph glyph-name="uni0E39" unicode="&#xe39;" 
d="M-72 -233q0 -65 -61 -99q-50 -28 -117 -28q-69 0 -121 26q-63 34 -63 96v64h-66v92h174v-141q0 -60 76 -60q70 0 70 60v141h108v-151v0z" />
    <glyph glyph-name="uni0E3A" unicode="&#xe3a;" 
d="M-51 -154q0 -29 -21.5 -50t-50.5 -21t-50.5 21t-21.5 50t21.5 50.5t50.5 21.5t50.5 -21.5t21.5 -50.5z" />
    <glyph glyph-name="uni0E3F" unicode="&#xe3f;" horiz-adv-x="733" 
d="M680 289q0 -277 -285 -289v-150h-61v150h-244v967h244v131h63v-131q112 -3 183 -60q77 -65 77 -184q0 -161 -159 -213q79 -6 129 -59q53 -59 53 -162zM532 717q0 134 -137 149v-309q137 24 137 160zM207 870v-317h127v317h-127zM563 274q0 161 -168 181v-359
q168 6 168 178zM207 457v-361h127v361h-127z" />
    <glyph glyph-name="uni0E40" unicode="&#xe40;" horiz-adv-x="338" 
d="M113 0v819h106v-737h94l-34 -82h-166z" />
    <glyph glyph-name="uni0E41" unicode="&#xe41;" horiz-adv-x="621" 
d="M395 0v819h107v-737h94l-35 -82h-166zM113 0v819h106v-737h94l-34 -82h-166z" />
    <glyph glyph-name="uni0E42" unicode="&#xe42;" horiz-adv-x="358" 
d="M219 1212q-82 3 -82 -26q0 -18 51 -51q52 -31 52 -76v-977h94l-35 -82h-166v1032q0 39 -57 78q-56 41 -56 82q0 55 58 86q25 12 55.5 18t65.5 4l227 -6l61 -88l-268 6v0z" />
    <glyph glyph-name="uni0E43" unicode="&#xe43;" horiz-adv-x="358" 
d="M354 1171q0 -61 -57 -106t-57 -98v-885h94l-35 -82h-166v991q0 58 55 101q55 45 52 84q-6 77 -101 77q-23 0 -43 -7.5t-35.5 -21t-24.5 -32t-9 -39.5h-109q-2 37 15 68t49 57q65 53 153 53q46 0 86 -11t69.5 -31.5t46.5 -50.5t17 -67z" />
    <glyph glyph-name="uni0E44" unicode="&#xe44;" horiz-adv-x="358" 
d="M352 1202q-23 0 -43 -8t-35.5 -23.5t-24.5 -37.5t-9 -50v-1001h94l-35 -82h-166v1110q0 71 62 92h-316l62 88h411v-88v0z" />
    <glyph glyph-name="uni0E45" unicode="&#xe45;" horiz-adv-x="600" 
d="M408 563q0 185 -148 185q-33 0 -60.5 -11.5t-47 -30t-30.5 -43t-11 -49.5h-111q6 86 74 148q76 67 184 67q258 0 258 -247v-869h-108v850z" />
    <glyph glyph-name="uni0E46" unicode="&#xe46;" horiz-adv-x="682" 
d="M504 655q0 76 -62 76q-27 -59 -110 -59q-79 0 -111 59q-61 0 -61 -76v-61h86v-82h-195v141q0 176 205 176q0 -67 76 -67q15 0 28.5 5t24 14t17 21.5t6.5 26.5q202 0 202 -176v-940h-106v942z" />
    <glyph glyph-name="uni0E47" unicode="&#xe47;" 
d="M-240 911q-65 0 -102 52q-37 -52 -129 -52h-123v101q0 69 51.5 108t139.5 39h120q74 0 74 53v29h109v-47q0 -109 -136 -109h-155q-92 0 -92 -61v-27q29 0 50 2t32 7q30 8 59 47q41 -56 131 -56h121l-41 -86h-109z" />
    <glyph glyph-name="uni0E48" unicode="&#xe48;" 
d="M-180 1341h108v-163h-108v163z" />
    <glyph glyph-name="uni0E49" unicode="&#xe49;" 
d="M-256 1210q0 43 -29 54q-15 6 -65 6l43 80h53q100 0 100 -82v-17h193v-73h-295v32z" />
    <glyph glyph-name="uni0E4A" unicode="&#xe4a;" 
d="M102 1378q4 -16 4 -39q0 -30 -11 -57.5t-30 -49t-45 -36t-57 -18.5h-59v43q0 46 -31 49q-1 -9 -8 -17t-17 -15t-23 -11t-26 -4t-26.5 4t-24.5 11t-18.5 15t-8.5 17q-30 -3 -30 -49v-43h-86v51q0 114 121 114q0 -55 73 -55q13 0 25.5 4.5t22.5 12t16 17.5t6 21
q123 0 123 -114q31 22 31 88q0 34 -15 61h94v0z" />
    <glyph glyph-name="uni0E4B" unicode="&#xe4b;" 
d="M-80 1178h-94v65h-88v64h88v65h94v-65h88v-64h-88v-65z" />
    <glyph glyph-name="uni0E4C" unicode="&#xe4c;" 
d="M-70 1176q-73 0 -73 -50v-26h-97v47q0 102 131 102h107v-73h-68v0z" />
    <glyph glyph-name="uni0E4D" unicode="&#xe4d;" 
d="M-8 1020q0 -51 -34 -80t-85 -29t-85 29t-34 80q0 49 34 78.5t85 29.5t85 -29.5t34 -78.5zM-80 1020q0 47 -47 47t-47 -47t47 -47t47 47z" />
    <glyph glyph-name="uni0E4E" unicode="&#xe4e;" 
d="M18 1327q-18 2 -36.5 3t-38.5 1q-93 0 -154 -24q-68 -29 -68 -74q0 -58 119 -55v-68q-88 3 -166 -23q-84 -27 -84 -77q0 -37 58 -37q60 0 116 33l33 -58q-77 -39 -153 -39q-138 0 -138 97q0 27 13.5 51t36 44t53 34t65.5 20q-39 34 -39 80q0 70 89 117q86 47 208 47
q44 0 86 -6v-66v0z" />
    <glyph glyph-name="uni0E4F" unicode="&#xe4f;" horiz-adv-x="963" 
d="M901 410q0 -174 -123 -297t-297 -123t-297 123t-123 297t123 297q125 122 297 122t297 -122q123 -123 123 -297zM840 410q0 148 -107 252q-103 106 -252 106q-148 0 -254 -106q-104 -107 -104 -252q0 -147 104 -254q108 -105 254 -105q148 0 252 105q107 107 107 254z
M737 410q0 -107 -75 -183q-73 -73 -181 -73q-106 0 -182 73q-37 39 -55.5 84t-18.5 99q0 106 74 180q76 76 182 76t181 -76q75 -72 75 -180z" />
    <glyph glyph-name="uni0E50" unicode="&#xe50;" horiz-adv-x="758" 
d="M696 307q0 -142 -92 -231q-45 -45 -100.5 -65.5t-124.5 -20.5q-136 0 -227 86q-91 88 -91 231q0 142 91 230t227 88q137 0 225 -88q92 -86 92 -230zM592 307q0 52 -16.5 95.5t-45 74.5t-67.5 48.5t-84 17.5t-84 -17.5t-67.5 -48.5t-45 -74.5t-16.5 -95.5q0 -53 16.5 -96
t45 -74t67.5 -48t84 -17t84 17t67.5 48t45 74t16.5 96z" />
    <glyph glyph-name="uni0E51" unicode="&#xe51;" horiz-adv-x="819" 
d="M758 301q0 -120 -70 -229q-29 -48 -62.5 -82.5t-70.5 -57.5l-92 27q70 46 123 123q65 104 65 215q0 55 -18 100.5t-49.5 77.5t-74.5 50t-93 18q-103 0 -176 -70q-74 -68 -74 -170q0 -54 15 -96t44 -74q51 -57 115 -51q-90 27 -90 127q0 30 11 55.5t30 44t45 29t57 10.5
t58 -11t46.5 -30.5t30.5 -47t11 -60.5q0 -76 -62 -138q-58 -61 -149 -61q-101 0 -178 74q-89 86 -89 231q0 136 97 227q97 93 254 93q81 0 145 -24t108.5 -66.5t68.5 -102t24 -131.5zM449 207q0 61 -58 61q-59 0 -59 -61q0 -62 59 -62q58 0 58 62z" />
    <glyph glyph-name="uni0E52" unicode="&#xe52;" horiz-adv-x="1055" 
d="M92 625q0 115 -112 137l90 67q125 -27 125 -155v-588h675v377q0 80 -92 80q-18 0 -34.5 -5.5t-29 -15.5t-20.5 -25t-8 -34v-309h-102v305q0 84 -103 84q-102 0 -102 -84v-51q18 6 35 6q28 0 53 -10t43.5 -28t29.5 -42t11 -51q0 -28 -11 -52.5t-29.5 -43t-43.5 -29.5
t-53 -11q-29 0 -54 10t-43.5 28t-29.5 43t-11 55v178q0 81 66 129q53 35 133 35q125 0 160 -68q35 68 149 68q189 0 189 -164v-461h-881v625zM475 283q0 57 -55 57q-58 0 -58 -57q0 -62 58 -62q55 0 55 62z" />
    <glyph glyph-name="uni0E53" unicode="&#xe53;" horiz-adv-x="901" 
d="M717 442q0 101 -103 101q-102 0 -102 -105v-438h-102v438q0 55 -39 82q-32 23 -74 23q-113 0 -113 -105v-174q25 6 41 6q31 0 57.5 -10t46 -28.5t31 -44t11.5 -56.5q0 -30 -11 -56t-30.5 -44.5t-46.5 -29.5t-58 -11t-57 10.5t-45 29t-30 45.5t-11 60v307q0 96 72 146
q55 37 137 37q66 0 108 -18.5t62 -55.5q47 74 160 74q198 0 198 -183v-442h-102v442zM289 131q0 62 -60 62q-59 0 -59 -62q0 -26 18 -44.5t41 -18.5q60 0 60 63z" />
    <glyph glyph-name="uni0E54" unicode="&#xe54;" horiz-adv-x="819" 
d="M791 819q12 -157 -82 -227q-81 -62 -222 -55q-137 3 -219 -48q-100 -60 -100 -188q0 -106 59 -168q52 -55 131 -55q46 0 84 20q-94 64 -94 170q0 31 11.5 58.5t31.5 47t46.5 31t56.5 11.5q31 0 58 -10.5t46 -30t30 -46t11 -57.5q0 -27 -9 -50t-24 -40.5t-35.5 -28
t-42.5 -12.5q31 -35 111 -51q70 -15 123 -6l-45 -92q-60 -2 -111 13t-94 44q-67 -55 -176 -55q-57 0 -104.5 18.5t-86.5 57.5q-84 87 -84 229q0 154 111 244q105 79 264 75q126 -3 180 27q68 38 68 135v19t-2 20h109zM557 272q0 62 -59 62q-58 0 -58 -62q0 -63 58 -63
q59 0 59 63z" />
    <glyph glyph-name="uni0E55" unicode="&#xe55;" horiz-adv-x="819" 
d="M791 819q12 -157 -82 -227q-81 -62 -222 -55q-137 3 -219 -48q-100 -60 -100 -188q0 -106 59 -168q52 -55 131 -55q46 0 84 20q-94 64 -94 170q0 31 11.5 58.5t31.5 47t46.5 31t56.5 11.5q31 0 58 -10.5t46 -30t30 -46t11 -57.5q0 -27 -9 -50t-24 -40.5t-35.5 -28
t-42.5 -12.5q31 -35 111 -51q70 -15 123 -6l-45 -92q-60 -2 -111 13t-94 44q-67 -55 -176 -55q-57 0 -104.5 18.5t-86.5 57.5q-84 87 -84 229q0 221 207 295q-39 43 -39 94q0 30 11.5 56t32.5 45.5t49 30.5t61 11q69 0 111.5 -39t42.5 -102q0 -41 -25 -69q188 12 170 198
h109zM451 682q0 68 -68 68t-68 -68q0 -26 19.5 -47t48.5 -21t48.5 21t19.5 47zM557 272q0 62 -59 62q-58 0 -58 -62q0 -63 58 -63q59 0 59 63z" />
    <glyph glyph-name="uni0E56" unicode="&#xe56;" horiz-adv-x="752" 
d="M690 315q0 -74 -23 -133.5t-65.5 -102.5t-102.5 -66t-134 -23q-111 0 -193 57q-94 64 -94 172q0 31 11.5 57t30.5 45t44.5 29t54.5 10q30 0 55.5 -9.5t44 -27t29 -42.5t10.5 -56q0 -54 -31.5 -87t-74.5 -38q41 -22 119 -22q45 0 84 18t67 49.5t44 75t16 94.5
q0 48 -13.5 89t-39 71t-62 47t-82.5 17q-33 0 -64 -9t-57 -25t-45 -38t-29 -49h-108v241q0 88 -82 103l80 67q104 -12 104 -122v-168q71 86 224 86q123 0 200 -80q42 -45 62 -101t20 -129zM276 225q0 58 -57 58q-53 0 -53 -58q0 -59 53 -59q57 0 57 59z" />
    <glyph glyph-name="uni0E57" unicode="&#xe57;" horiz-adv-x="1122" 
d="M1112 772q-16 -3 -31 -12t-26 -22.5t-18 -29.5t-7 -34v-445q0 -50 -19.5 -92t-54 -72.5t-81 -47.5t-99.5 -17h-84l-53 49q78 21 78 96v297q0 101 -103 101q-102 0 -102 -105v-438h-102v438q0 55 -39 82q-32 23 -74 23q-113 0 -113 -105v-174q25 6 41 6q31 0 57.5 -10
t46 -28.5t31 -44t11.5 -56.5q0 -30 -11 -56t-30.5 -44.5t-46.5 -29.5t-58 -11t-57 10.5t-45 29t-30 45.5t-11 60v307q0 96 72 146q55 37 137 37q66 0 108 -18.5t62 -55.5q47 74 160 74q198 0 198 -183v-280q0 -67 -37 -94q27 2 53 14.5t47 33t33.5 48.5t12.5 61v484
q0 48 29.5 81t74.5 41zM289 131q0 62 -60 62q-59 0 -59 -62q0 -26 18 -44.5t41 -18.5q60 0 60 63z" />
    <glyph glyph-name="uni0E58" unicode="&#xe58;" horiz-adv-x="809" 
d="M737 143q0 -143 -123 -143h-159l-82 106l-82 -106h-70q-149 0 -149 215v141q0 258 256 258h176q131 0 131 115v100l102 -41v-92q0 -37 -15 -67.5t-42 -53t-63.5 -35t-79.5 -12.5h-146q-127 0 -168 -41q-23 -23 -35 -68t-12 -114v-93.5t2 -39.5q12 -88 74 -88l121 147
l119 -145h53q49 0 65 10q25 15 25 64q-24 -8 -43 -8q-29 0 -53 9.5t-42 27t-28 42t-10 54.5q0 28 10.5 52.5t29.5 43t43.5 29t53.5 10.5q30 0 56 -10t44.5 -28t29.5 -44t11 -57v-138zM643 285q0 61 -53 61q-55 0 -55 -61q0 -58 55 -58q53 0 53 58z" />
    <glyph glyph-name="uni0E59" unicode="&#xe59;" horiz-adv-x="850" 
d="M885 762q-66 -9 -66 -94v-201h-104q-35 68 -113 68q-16 0 -31 -7t-26 -20t-18 -30t-7 -36q0 -11 1.5 -22.5t6.5 -22.5l134 -344l40 -53h-127l-145 385q-58 154 -147 154q-109 0 -109 -123v-152q24 6 41 6q31 0 57.5 -10t46 -28.5t30.5 -44t11 -56.5q0 -30 -11 -56
t-30 -44.5t-46 -29.5t-58 -11t-57 10.5t-45 29t-30 45.5t-11 60v289q0 96 63 149q58 52 135 52q122 0 181 -101q27 101 143 101q93 0 123 -41v131q0 96 96 114zM279 131q0 62 -60 62q-59 0 -59 -62q0 -63 59 -63q60 0 60 63z" />
    <glyph glyph-name="uni0E5A" unicode="&#xe5a;" horiz-adv-x="870" 
d="M809 86q0 -67 -39 -86h-125q55 21 55 88v576q-38 -45 -102 -54v-524q0 -67 -39 -86h-125q55 21 55 88v551q-17 -35 -69 -66q-62 -36 -127 -36q-49 0 -93 13.5t-77 37.5t-52.5 56.5t-19.5 70.5q0 57 41 104h117q-41 -39 -41 -90q0 -54 47 -86q41 -28 100 -25
q34 3 65.5 16.5t55.5 36.5t38.5 53.5t14.5 68.5v26h109v-147q102 39 102 131v16h109v-733v0z" />
    <glyph glyph-name="uni0E5B" unicode="&#xe5b;" horiz-adv-x="1495" 
d="M1462 434q0 -27 -49 -31l-178 -18q-12 -53 -43 -53q-14 0 -27 30q-11 25 -19 43t-16 29q-21 -127 -59 -127q-18 0 -37 45q-14 32 -23 52t-16 28q-18 -147 -65 -147q-24 0 -39 55q-21 82 -37 109q-11 -54 -21 -88.5t-18 -53.5q-21 -49 -53 -49t-41 49q-17 76 -33 129
q-36 -172 -125 -272q-95 -105 -227 -105q-61 0 -111.5 26t-87 72.5t-56.5 112t-20 144.5q0 150 72 254q74 104 180 104q45 0 84 -20t67.5 -55t45 -82.5t16.5 -102.5q0 -43 -10 -79t-27.5 -62.5t-42.5 -41t-55 -14.5q-26 0 -47.5 10.5t-37.5 29t-25 43t-9 53.5q0 27 9.5 52
t25.5 44t37 30t45 11q12 0 33 -6q-4 45 -34.5 75.5t-72.5 30.5q-34 0 -63.5 -21t-51 -58.5t-34 -89.5t-12.5 -113q0 -62 14 -111.5t39.5 -84.5t61 -54t79.5 -19q49 0 93 27.5t80 78t61 121t36 156.5q10 84 54 84q16 0 31.5 -17t29 -46t25 -69t18.5 -85q6 26 10.5 63t6.5 85
q3 49 36 49q44 0 103 -164q2 19 4 41t6 40.5t10.5 31t18.5 12.5q39 0 98 -135q4 16 7.5 34.5t8.5 34t12 25.5t19 10q28 0 74 -76q15 48 45 45l178 -18q49 -3 49 -31zM444 453q0 63 -55 63q-53 0 -53 -63q0 -64 53 -64q55 0 55 64z" />
    <glyph glyph-name="endash" unicode="&#x2013;" horiz-adv-x="696" 
d="M41 414h614v-90h-614v90z" />
    <glyph glyph-name="emdash" unicode="&#x2014;" horiz-adv-x="1393" 
d="M41 414h1311v-90h-1311v90z" />
    <glyph glyph-name="quoteleft" unicode="&#x2018;" horiz-adv-x="291" 
d="M231 741q0 -32 -22.5 -54.5t-54.5 -22.5q-90 0 -93 102q-3 129 119 182l29 -28q-90 -35 -90 -109q14 8 35 8q32 0 54.5 -23t22.5 -55z" />
    <glyph glyph-name="quoteright" unicode="&#x2019;" horiz-adv-x="291" 
d="M231 846q4 -130 -118 -182l-29 28q90 34 90 109q-14 -8 -35 -8q-32 0 -55 22.5t-23 54.5t23 55t55 23q89 0 92 -102z" />
    <glyph glyph-name="quotedblleft" unicode="&#x201c;" horiz-adv-x="516" 
d="M455 741q0 -32 -23 -54.5t-55 -22.5q-89 0 -92 102q-3 130 118 182l29 -28q-90 -35 -90 -109q14 8 35 8q32 0 55 -23t23 -55zM229 741q0 -32 -22.5 -54.5t-54.5 -22.5q-90 0 -93 102q-3 129 119 182l29 -28q-90 -35 -90 -109q14 8 35 8q32 0 54.5 -23t22.5 -55z" />
    <glyph glyph-name="quotedblright" unicode="&#x201d;" horiz-adv-x="516" 
d="M457 846q3 -131 -119 -182l-29 28q90 34 90 109q-14 -8 -34 -8q-32 0 -55 22.5t-23 54.5t23 55t55 23q89 0 92 -102zM231 846q4 -130 -118 -182l-29 28q90 34 90 109q-14 -8 -35 -8q-32 0 -55 22.5t-23 54.5t23 55t55 23q89 0 92 -102z" />
    <glyph glyph-name="bullet" unicode="&#x2022;" horiz-adv-x="737" 
d="M676 410q0 -127 -90 -217q-91 -91 -217 -91q-129 0 -217 91q-91 88 -91 217q0 126 91 217q90 90 217 90q125 0 217 -90q90 -92 90 -217z" />
    <glyph glyph-name="ellipsis" unicode="&#x2026;" horiz-adv-x="922" 
d="M840 72q0 -29 -21.5 -50.5t-50.5 -21.5t-50.5 21.5t-21.5 50.5t21.5 50t50.5 21t50.5 -21t21.5 -50zM532 72q0 -29 -21 -50.5t-50 -21.5t-50.5 21.5t-21.5 50.5t21.5 50t50.5 21t50 -21t21 -50zM225 72q0 -29 -21 -50.5t-50 -21.5t-50.5 21.5t-21.5 50.5t21.5 50t50.5 21
t50 -21t21 -50z" />
    <glyph glyph-name="thothannobasethai" unicode="&#xf700;" horiz-adv-x="694" 
d="M682 881q-9 -121 -145 -146q96 -108 96 -299q0 -199 -88 -317q-89 -119 -215 -119h-127l-74 375q-9 54 -84 57l88 84q79 0 94 -76l72 -358q88 6 147 84q36 45 54 108.5t20 145.5q2 70 -12 130.5t-42 104t-69.5 68.5t-93.5 25q-74 0 -129 -46q-46 -36 -61 -88h-123
q27 89 104 148q88 67 217 67q38 0 97 -18q57 -18 84 -18q15 0 28 7t21.5 19t12 28t-0.5 34h129v0z" />
    <glyph glyph-name="saraileftthai" unicode="&#xf701;" 
d="M-750 993h506v-82h-506v82z" />
    <glyph glyph-name="saraiileftthai" unicode="&#xf702;" 
d="M-750 993h398v123h108v-205h-506v82z" />
    <glyph glyph-name="saraueleftthai" unicode="&#xf703;" 
d="M-201 1020q0 -23 -8.5 -42.5t-24 -34.5t-36.5 -23.5t-45 -8.5h-441v82h330q-4 15 -4 27q0 22 9 41.5t24.5 34.5t36.5 23.5t45 8.5t44.5 -8.5t36 -23.5t24.5 -34.5t9 -41.5zM-266 1020q0 47 -49 47q-50 0 -50 -47t50 -47q49 0 49 47z" />
    <glyph glyph-name="saraueeleftthai" unicode="&#xf704;" 
d="M-750 993h248v123h86v-123h64v123h108v-205h-506v82z" />
    <glyph glyph-name="maieklowleftthai" unicode="&#xf705;" 
d="M-395 1116h108v-205h-108v205z" />
    <glyph glyph-name="maitholowleftthai" unicode="&#xf706;" 
d="M-467 948q0 46 -33 60q-15 6 -71 6l47 88h59q111 0 111 -90v-19h258v-82h-371v37z" />
    <glyph glyph-name="maitrilowleftthai" unicode="&#xf707;" 
d="M-100 1135q6 -23 6 -45q0 -32 -12.5 -61.5t-34 -53.5t-50.5 -41t-63 -23h-65v47q0 53 -35 56q-1 -10 -8.5 -19.5t-19 -17t-26.5 -12t-30 -4.5t-29.5 4.5t-26 12t-19.5 17t-11 19.5q-33 -3 -33 -56v-47h-96v58q0 127 135 127q0 -13 6.5 -24.5t18 -19.5t26 -13t29.5 -5
t29.5 5t26 13t18 19.5t6.5 24.5q135 0 135 -127q35 26 35 96q0 38 -17 70h105v0z" />
    <glyph glyph-name="maichattawalowleftthai" unicode="&#xf708;" 
d="M-330 911h-108v72h-97v72h97v71h108v-71h97v-72h-97v-72z" />
    <glyph glyph-name="thanthakhatlowleftthai" unicode="&#xf709;" 
d="M-299 1034q-82 0 -82 -55v-31h-106v53q0 115 143 115h121v-82h-76v0z" />
    <glyph glyph-name="maieklowrightthai" unicode="&#xf70a;" 
d="M-180 1116h108v-205h-108v205z" />
    <glyph glyph-name="maitholowrightthai" unicode="&#xf70b;" 
d="M-299 948q0 46 -33 60q-15 6 -71 6l47 88h59q111 0 111 -90v-19h258v-82h-371v37z" />
    <glyph glyph-name="maitrilowrightthai" unicode="&#xf70c;" 
d="M-33 1135q6 -23 6 -45q0 -32 -12 -61.5t-33 -53.5t-49.5 -41t-62.5 -23h-68v47q0 53 -33 56q-1 -10 -8.5 -19.5t-19 -17t-26.5 -12t-30 -4.5t-29.5 4.5t-26 12t-19.5 17t-11 19.5q-32 -3 -32 -56v-47h-97v58q0 127 135 127q0 -13 6.5 -24.5t18 -19.5t26 -13t29.5 -5
q31 0 54.5 18t23.5 44q63 0 100 -35t37 -92q33 25 33 98q0 40 -14 68h102v0z" />
    <glyph glyph-name="maichattawalowrightthai" unicode="&#xf70d;" 
d="M-168 911h-108v72h-97v72h97v71h108v-71h96v-72h-96v-72z" />
    <glyph glyph-name="thanthakhatlowrightthai" unicode="&#xf70e;" 
d="M-111 997q-82 0 -82 -55v-31h-108v54q0 114 145 114h119v-82h-74v0z" />
    <glyph glyph-name="yoyingnobasethai" unicode="&#xf70f;" horiz-adv-x="1157" 
d="M1083 215q0 -53 -19.5 -94.5t-55 -70.5t-85 -44.5t-108.5 -15.5t-108.5 15.5t-85.5 44.5t-56 70.5t-20 94.5v363q0 37 -13 68.5t-36.5 54t-57 35t-73.5 12.5q-144 0 -185 -113l80 -57q-82 -22 -82 -103v-393h125l-33 -82h-198v463q0 80 69 106l-84 58q19 80 93 139
q84 63 215 63q64 0 117.5 -17.5t91 -49t58.5 -76.5t21 -100v-365q0 -37 12.5 -65t34 -46.5t51 -28t64.5 -9.5q160 0 160 149v598h108v-604v0z" />
    <glyph glyph-name="maihanakatleftthai" unicode="&#xf710;" 
d="M-518 1077h108v-84h408v-82h-516v166z" />
    <glyph glyph-name="nikhahitleftthai" unicode="&#xf711;" 
d="M-195 1010q0 -23 -8.5 -42.5t-23.5 -34.5t-34.5 -23.5t-41.5 -8.5q-23 0 -42.5 8.5t-34.5 23.5t-23.5 34.5t-8.5 42.5q0 22 8.5 41.5t23.5 34.5t34.5 23.5t42.5 8.5q22 0 41.5 -8.5t34.5 -23.5t23.5 -34.5t8.5 -41.5zM-256 1010q0 47 -47 47t-47 -47t47 -47t47 47z" />
    <glyph glyph-name="maitaikhuleftthai" unicode="&#xf712;" 
d="M-352 911q-67 0 -101 52q-39 -52 -129 -52h-123v101q0 69 50.5 108t138.5 39h121q76 0 76 53v29h106v-47q0 -109 -135 -109h-154q-94 0 -94 -61v-27q29 0 50.5 2t33.5 7q17 5 31 16.5t28 30.5q41 -56 131 -56h121l-41 -86h-110z" />
    <glyph glyph-name="maiekupperleftthai" unicode="&#xf713;" 
d="M-352 1341h108v-163h-108v163z" />
    <glyph glyph-name="maithoupperleftthai" unicode="&#xf714;" 
d="M-406 1210q0 44 -28 54q-15 6 -66 6l43 80h54q98 0 98 -82v-17h194v-73h-295v32z" />
    <glyph glyph-name="maitriupperleftthai" unicode="&#xf715;" 
d="M-20 1378q4 -16 4 -39q0 -30 -10.5 -57.5t-29.5 -49t-45 -36t-57 -18.5h-61v43q0 46 -31 49q-1 -9 -8 -17t-17 -15t-23 -11t-26 -4t-26 4t-24 11t-18.5 15t-8.5 17q-31 -3 -31 -49v-43h-86v51q0 114 121 114q0 -55 73 -55q13 0 25.5 4.5t22.5 12t16 17.5t6 21
q123 0 123 -114q31 22 31 90q0 34 -13 59h93v0z" />
    <glyph glyph-name="maichattawaupperleftthai" unicode="&#xf716;" 
d="M-252 1178h-94v65h-88v64h88v65h94v-65h88v-64h-88v-65z" />
    <glyph glyph-name="thanthakhatupperleftthai" unicode="&#xf717;" 
d="M-250 1176q-72 0 -72 -50v-26h-98v47q0 102 133 102h107v-73h-70v0z" />
    <glyph glyph-name="saraulowthai" unicode="&#xf718;" 
d="M-180 -440h-88v92h196v-266h-108v174z" />
    <glyph glyph-name="sarauulowthai" unicode="&#xf719;" 
d="M-72 -500q0 -64 -61 -98q-50 -29 -117 -29q-69 0 -121 27q-63 31 -63 96v64h-66v92h174v-141q0 -60 76 -60q70 0 70 60v141h108v-152v0z" />
    <glyph glyph-name="phinthulowthai" unicode="&#xf71a;" 
d="M-72 -420q0 -29 -21 -50.5t-50 -21.5t-50.5 21.5t-21.5 50.5t21.5 50.5t50.5 21.5t50 -21.5t21 -50.5z" />
    <glyph glyph-name="minus" unicode="&#xad;" horiz-adv-x="696" 
d="M41 414h614v-90h-614v90z" />
    <glyph glyph-name="uni0E33_1" horiz-adv-x="588" 
d="M-195 1010q0 -23 -8.5 -42.5t-23.5 -34.5t-34.5 -23.5t-41.5 -8.5q-23 0 -42.5 8.5t-34.5 23.5t-23.5 34.5t-8.5 42.5q0 22 8.5 41.5t23.5 34.5t34.5 23.5t42.5 8.5q22 0 41.5 -8.5t34.5 -23.5t23.5 -34.5t8.5 -41.5zM408 563q0 185 -148 185q-33 0 -60.5 -11.5t-47 -30
t-30.5 -43t-11 -49.5h-111q6 86 74 148q76 67 184 67q258 0 258 -247v-582h-108v563zM-256 1010q0 47 -47 47t-47 -47t47 -47t47 47z" />
    <glyph glyph-name="uni0E4E_1" 
d="M-39 1327q-18 2 -37 3t-39 1q-92 0 -153 -24q-68 -29 -68 -74q0 -58 119 -55v-68q-90 3 -166 -23q-84 -27 -84 -77q0 -37 57 -37q29 0 58.5 8t58.5 25l33 -58q-77 -39 -154 -39q-137 0 -137 97q0 27 13.5 51t36 44t53 34t65.5 20q-39 33 -39 80q0 71 88 117
q45 23 95.5 35t113.5 12q42 0 86 -6v-66v0z" />
    <glyph glyph-name="currency" unicode="&#xa4;" horiz-adv-x="840" 
d="M422 729q-96 0 -160 -67q-65 -74 -65 -160q0 -94 63 -164q65 -68 162 -68q92 0 158 68q63 63 63 164q0 46 -16.5 87t-45.5 72t-70 49.5t-89 18.5zM156 309q-62 83 -62 193q0 114 62 188l-148 150l76 71l145 -145q80 59 193 59q55 0 105.5 -16t82.5 -43l150 145l71 -71
l-145 -150q59 -80 59 -188q0 -113 -59 -193l145 -145l-71 -76l-150 148q-15 -13 -36 -23.5t-47 -20.5q-53 -18 -105 -18q-110 0 -193 62l-145 -148l-76 76z" />
    <glyph glyph-name="FL00A9h" unicode="&#xa9;" horiz-adv-x="1032" 
d="M1020 483q0 -209 -148 -356q-147 -147 -356 -147t-356 147q-148 147 -148 356t148 357q147 147 356 147t356 -147q148 -148 148 -357zM948 483q0 181 -127 305q-127 130 -305 130t-305 -130q-127 -124 -127 -305q0 -177 127 -307q127 -127 305 -127t305 127
q127 130 127 307zM739 393q0 -89 -49 -147q-58 -64 -166 -64q-233 0 -233 291q0 311 231 311q204 0 213 -190h-67q-9 133 -146 133q-160 0 -160 -258q0 -229 160 -229q141 0 150 153h67z" />
    <glyph glyph-name="fongmanfunnuthai" unicode="&#xf880;" 
 />
    <glyph glyph-name="lochula.short" unicode="&#xf71d;" 
 />
    <glyph glyph-name="dollar" unicode="$" horiz-adv-x="655" 
d="M627 256q0 -255 -271 -270v-138h-63v138q-67 3 -116.5 21.5t-82.5 56t-49 95t-16 138.5h114q0 -62 8.5 -103t26.5 -66t46.5 -36.5t68.5 -13.5v366q-254 99 -254 265q0 117 76 186q69 63 178 72v133h63v-133q110 -9 174 -70q72 -68 72 -188h-121q0 153 -125 170v-342
q131 -44 191 -95q80 -71 80 -186zM293 879q-135 -23 -135 -162q0 -112 135 -158v320zM510 236q0 81 -41 120q-15 16 -43 31.5t-70 32.5v-340q154 12 154 156z" />
    <glyph glyph-name="zerowidthnonjoiner" unicode="&#x200c;" 
 />
    <glyph glyph-name="zerowidthjoiner" unicode="&#x200d;" 
 />
    <glyph glyph-name="F881" 
 />
    <glyph glyph-name="F882" 
 />
    <glyph glyph-name="saraueesp2" 
d="M-426 1341h109v-163h-109v163zM-750 993h248v123h86v-123h64v123h108v-205h-506v82z" />
    <glyph glyph-name="saraisp" 
d="M-778 1071h538v-82h-538v82z" />
    <glyph glyph-name="saraiisp" 
d="M-778 1071h430v123h108v-205h-538v82z" />
    <glyph glyph-name="numbersign" unicode="#" horiz-adv-x="655" 
d="M438 406h158l-29 -76h-155l-109 -330h-78l109 330h-123l-109 -330h-77l108 330h-151l28 76h150l51 153h-154l29 76h150l110 334h78l-111 -334h123l111 334h78l-111 -334h158l-29 -76h-154zM360 406l52 153h-123l-51 -153h122z" />
    </font>
</defs>
</svg>
